<?xml version="1.0" standalone="no"?><svg xmlns="http://www.w3.org/2000/svg" viewBox="0 0 1440 320"><path fill="#9cd037" fill-opacity="1" d="M0,256L40,245.3C80,235,160,213,240,218.7C320,224,400,256,480,272C560,288,640,288,720,256C800,224,880,160,960,138.7C1040,117,1120,139,1200,144C1280,149,1360,139,1400,133.3L1440,128L1440,320L1400,320C1360,320,1280,320,1200,320C1120,320,1040,320,960,320C880,320,800,320,720,320C640,320,560,320,480,320C400,320,320,320,240,320C160,320,80,320,40,320L0,320Z"></path></svg>